<?xml version="1.0" encoding="UTF-8"?>
<svg id="Camada_2" data-name="Camada 2" xmlns="http://www.w3.org/2000/svg" viewBox="0 0 264.56 88.54">
  <defs>
    <style>
      .cls-1, .cls-2 {
        fill: #0140ea;
      }

      .cls-2 {
        fill-rule: evenodd;
      }
    </style>
  </defs>
  <g id="Camada_1-2" data-name="Camada 1">
    <path class="cls-2" d="M92.11,75.42v8.81l7.19-4.22v-.44l.38,.22,.03,.02,17.28-9.98,17.28-9.98V19.95l-17.28-9.98L99.71,0l-17.28,9.98-17.28,9.98V59.85l17.28,9.98,9.68,5.59Zm0-2.61v-8.71l-4.78-2.76-12.38-7.15V25.61l12.38-7.15,12.38-7.15,12.38,7.15,12.38,7.15v28.59l-12.38,7.15-11.92,6.88-.46,.26-.06-.03-.35-.2v.4l-7.19,4.15Zm7.94-4.58l-.4,.23"/>
    <path class="cls-2" d="M88.42,35.46c2.42,0,4.38,1.96,4.38,4.38s-1.96,4.38-4.38,4.38-4.38-1.96-4.38-4.38,1.96-4.38,4.38-4.38"/>
    <path class="cls-2" d="M111,35.46c2.42,0,4.38,1.96,4.38,4.38s-1.96,4.38-4.38,4.38-4.38-1.96-4.38-4.38,1.96-4.38,4.38-4.38"/>
    <path d="M136.53,88.38v-7.3h-2.88v-1.7h7.84v1.7h-2.88v7.3h-2.08Z"/>
    <path d="M149.26,86.71h4.9v1.67h-6.96v-9h6.8v1.67h-4.73v5.65Zm-.15-3.7h4.33v1.62h-4.33v-1.62Z"/>
    <path d="M164.68,88.54c-.69,0-1.34-.11-1.93-.34-.6-.23-1.11-.55-1.55-.97-.44-.42-.78-.91-1.02-1.48s-.37-1.19-.37-1.86,.12-1.3,.37-1.86,.59-1.06,1.03-1.48c.44-.42,.96-.74,1.55-.97,.59-.23,1.24-.34,1.94-.34,.78,0,1.48,.13,2.11,.41,.63,.27,1.16,.67,1.59,1.19l-1.34,1.23c-.31-.35-.65-.61-1.03-.79s-.79-.26-1.23-.26c-.42,0-.81,.07-1.16,.21-.35,.14-.66,.33-.91,.59s-.46,.56-.6,.91c-.14,.35-.21,.74-.21,1.17s.07,.82,.21,1.17c.14,.35,.34,.66,.6,.91s.56,.45,.91,.59c.35,.14,.74,.21,1.16,.21,.45,0,.86-.09,1.23-.26,.38-.17,.72-.44,1.03-.8l1.34,1.23c-.43,.52-.96,.92-1.59,1.2-.63,.27-1.34,.41-2.13,.41Z"/>
    <path d="M174.37,88.38v-9h1.72l5.31,6.48h-.83v-6.48h2.06v9h-1.71l-5.32-6.48h.84v6.48h-2.06Z"/>
    <path d="M193.7,88.54c-.71,0-1.37-.12-1.97-.35-.6-.23-1.13-.56-1.57-.98-.44-.42-.78-.91-1.03-1.48s-.37-1.18-.37-1.85,.12-1.28,.37-1.85,.59-1.06,1.03-1.48c.45-.42,.97-.75,1.57-.98s1.25-.35,1.95-.35,1.36,.12,1.96,.35c.59,.23,1.11,.56,1.55,.98,.44,.42,.79,.91,1.03,1.47,.25,.56,.37,1.18,.37,1.86s-.12,1.29-.37,1.86-.59,1.06-1.03,1.48c-.44,.42-.96,.74-1.55,.97-.6,.23-1.25,.35-1.95,.35Zm-.01-1.77c.4,0,.77-.07,1.11-.21,.34-.14,.64-.33,.89-.59s.46-.56,.6-.91c.14-.35,.21-.74,.21-1.17s-.07-.82-.21-1.17c-.14-.35-.34-.66-.59-.91s-.55-.45-.89-.59c-.34-.14-.72-.21-1.12-.21s-.77,.07-1.11,.21c-.34,.14-.64,.33-.89,.59s-.46,.56-.6,.91c-.14,.35-.21,.74-.21,1.17s.07,.81,.21,1.16c.14,.36,.34,.66,.59,.92,.25,.26,.55,.45,.89,.59,.34,.14,.72,.21,1.12,.21Z"/>
    <path d="M204.76,88.38v-9h2.08v7.3h4.51v1.7h-6.59Z"/>
    <path d="M221.32,88.54c-.71,0-1.37-.12-1.97-.35-.6-.23-1.13-.56-1.57-.98-.44-.42-.78-.91-1.03-1.48s-.37-1.18-.37-1.85,.12-1.28,.37-1.85,.59-1.06,1.03-1.48c.45-.42,.97-.75,1.57-.98s1.25-.35,1.95-.35,1.36,.12,1.96,.35c.59,.23,1.11,.56,1.55,.98,.44,.42,.79,.91,1.03,1.47,.25,.56,.37,1.18,.37,1.86s-.12,1.29-.37,1.86-.59,1.06-1.03,1.48c-.44,.42-.96,.74-1.55,.97-.6,.23-1.25,.35-1.95,.35Zm-.01-1.77c.4,0,.77-.07,1.11-.21,.34-.14,.64-.33,.89-.59s.46-.56,.6-.91c.14-.35,.21-.74,.21-1.17s-.07-.82-.21-1.17c-.14-.35-.34-.66-.59-.91s-.55-.45-.89-.59c-.34-.14-.72-.21-1.12-.21s-.77,.07-1.11,.21c-.34,.14-.64,.33-.89,.59s-.46,.56-.6,.91c-.14,.35-.21,.74-.21,1.17s.07,.81,.21,1.16c.14,.36,.34,.66,.59,.92,.25,.26,.55,.45,.89,.59,.34,.14,.72,.21,1.12,.21Z"/>
    <path d="M236.72,88.54c-.71,0-1.36-.11-1.96-.34-.6-.23-1.11-.55-1.55-.97s-.78-.91-1.03-1.48-.37-1.19-.37-1.86,.12-1.3,.37-1.86,.59-1.06,1.03-1.48c.45-.42,.97-.74,1.57-.97,.6-.23,1.26-.34,1.98-.34,.8,0,1.51,.13,2.15,.4,.64,.27,1.18,.65,1.61,1.16l-1.34,1.23c-.33-.34-.68-.6-1.07-.76-.39-.17-.81-.25-1.26-.25s-.84,.07-1.2,.21c-.36,.14-.67,.33-.93,.59-.26,.26-.46,.56-.6,.91-.14,.35-.21,.74-.21,1.17s.07,.81,.21,1.16c.14,.35,.34,.66,.6,.92s.57,.46,.92,.6c.36,.14,.75,.21,1.18,.21s.81-.07,1.2-.2c.39-.13,.77-.36,1.14-.67l1.18,1.5c-.49,.37-1.06,.65-1.7,.85-.65,.2-1.29,.3-1.93,.3Zm1.73-1.41v-3.38h1.9v3.65l-1.9-.27Z"/>
    <path d="M246.86,88.38v-9h2.08v9h-2.08Z"/>
    <path d="M254.47,88.38l4.01-9h2.06l4.02,9h-2.18l-3.29-7.94h.82l-3.3,7.94h-2.13Zm2-1.93l.55-1.58h4.63l.57,1.58h-5.74Z"/>
    <g>
      <path class="cls-1" d="M45.65,13.07c2.39,1.18,4.29,2.85,5.69,4.99,1.4,2.14,2.1,4.54,2.1,7.18,0,6.98-3.16,11.38-9.48,13.2v.33c7.2,1.65,10.8,6.38,10.8,14.19,0,2.97-.73,5.6-2.19,7.88-1.46,2.28-3.45,4.06-5.98,5.32-2.53,1.27-5.31,1.9-8.33,1.9H0V11.29H37.77c2.86,0,5.48,.59,7.88,1.77Zm-27.42,20.33h12.54c1.21,0,2.21-.43,3.01-1.28,.8-.85,1.2-1.91,1.2-3.18v-.83c0-1.21-.41-2.24-1.24-3.09-.83-.85-1.82-1.28-2.97-1.28h-12.54v9.65Zm0,21.44h13.86c1.21,0,2.21-.43,3.01-1.28,.8-.85,1.2-1.91,1.2-3.18v-.82c0-1.26-.4-2.32-1.2-3.18-.8-.85-1.8-1.28-3.01-1.28h-13.86v9.73Z"/>
      <path class="cls-1" d="M179.22,25.81v42.23h-18.23V25.81h-18.64V11.29h55.42v14.52h-18.56Z"/>
      <path class="cls-1" d="M264.17,68.04h-22.11l-10.48-17.65h-.33l-10.48,17.65h-20.45l20.29-30.02-18.31-26.72h22.02l8.58,14.52h.33l8.66-14.52h20.37l-18.39,26.81,20.29,29.94Z"/>
    </g>
    <polygon class="cls-2" points="139.11 33.64 135.44 31.56 135.44 46.49 139.11 44.42 139.11 43.77 139.11 34.28 139.11 33.64"/>
    <polygon class="cls-2" points="59.95 33.64 63.62 31.56 63.62 46.49 59.95 44.42 59.95 43.77 59.95 34.28 59.95 33.64"/>
  </g>
</svg>